<svg width="129.000000" height="31.000000" viewBox="0 0 129 31" fill="none" xmlns="http://www.w3.org/2000/svg" xmlns:xlink="http://www.w3.org/1999/xlink">
	<desc>
			Created with Pixso.
	</desc>
	<defs/>
	<path id="Vector" d="M15.4168 0L113.583 0C116.322 -1.71661e-05 118.491 -3.24249e-05 120.224 0.176233C121.999 0.356829 123.481 0.734791 124.778 1.60104C125.815 2.29415 126.706 3.18478 127.399 4.22208C128.265 5.51852 128.643 7.0006 128.824 8.77589C129 10.5086 129 12.6783 129 15.4167L129 15.5833C129 18.3217 129 20.4914 128.824 22.2241C128.643 23.9994 128.265 25.4815 127.399 26.7779C126.706 27.8152 125.815 28.7059 124.778 29.399C123.481 30.2652 121.999 30.6432 120.224 30.8238C118.491 31 116.322 31 113.583 31L15.4168 31C12.6784 31 10.5086 31 8.77589 30.8238C7.0006 30.6432 5.51852 30.2652 4.22208 29.399C3.18478 28.7059 2.29415 27.8152 1.60104 26.7779C0.734791 25.4815 0.356829 23.9994 0.176233 22.2241C-3.24249e-05 20.4914 -1.71661e-05 18.3216 0 15.5832L0 15.4168C-1.71661e-05 12.6784 -3.24249e-05 10.5086 0.176233 8.77589C0.356829 7.0006 0.734791 5.51852 1.60104 4.22208C2.29415 3.18478 3.18478 2.29415 4.22208 1.60104C5.51852 0.734791 7.0006 0.356829 8.77589 0.176233C10.5086 -3.24249e-05 12.6784 -1.71661e-05 15.4168 0ZM9.0795 3.16083C7.54142 3.31729 6.61014 3.61346 5.88879 4.09545C5.17906 4.56968 4.56968 5.17906 4.09545 5.88879C3.61346 6.61014 3.31729 7.54142 3.16083 9.0795C3.00181 10.6427 3 12.6599 3 15.5C3 18.3401 3.00181 20.3573 3.16083 21.9205C3.31729 23.4586 3.61346 24.3899 4.09545 25.1112C4.56968 25.8209 5.17906 26.4303 5.88879 26.9046C6.61014 27.3865 7.54142 27.6827 9.0795 27.8392C10.6427 27.9982 12.6599 28 15.5 28L113.5 28C116.34 28 118.357 27.9982 119.92 27.8392C121.459 27.6827 122.39 27.3865 123.111 26.9046C123.821 26.4303 124.43 25.8209 124.905 25.1112C125.387 24.3899 125.683 23.4586 125.839 21.9205C125.998 20.3573 126 18.3401 126 15.5C126 12.6599 125.998 10.6427 125.839 9.0795C125.683 7.54142 125.387 6.61014 124.905 5.88879C124.43 5.17906 123.821 4.56968 123.111 4.09545C122.39 3.61346 121.459 3.31729 119.92 3.16083C118.357 3.00181 116.34 3 113.5 3L15.5 3C12.6599 3 10.6427 3.00181 9.0795 3.16083Z" fill="#000000" fill-opacity="1.000000" fill-rule="evenodd"/>
</svg>
